<svg xmlns="http://www.w3.org/2000/svg" width="181" height="181" viewBox="0 0 181 181"><defs><path d="M0 .25h180.735v180.397h-180.735v-180.397 180.397h180.734v-180.397h-180.734z"/></defs><g fill="#336e7b"><path d="M122.198 62.758c4.63 0 4.63 6.991 0 6.991-4.629 0-4.629-6.991 0-6.991m17.426-7.414c4.68 0 4.68 6.93 0 6.93-4.678 0-4.678-6.93 0-6.93m0 47.36c2 0 3.505 1.496 3.505 3.496s-1.503 3.497-3.505 3.497c-1.997 0-3.501-1.496-3.501-3.497 0-1.999 1.5-3.496 3.5-3.496m-81.911-34.273c0-4.62 7.006-4.62 7.006 0s-7.006 4.62-7.006 0m-27.955 24.717c-2.098-2.16-.778-5.992 2.501-5.992 2.001 0 3.503 1.495 3.503 3.496 0 3.261-3.823 4.592-6.004 2.496m17.01-42.808c1.45-.883 3.234-.732 4.453.448 1.79 1.736 1.23 5.539-2.095 5.94-4.361 0-5.015-4.653-2.357-6.388m43.6-41.857c-45.337 0-82.222 36.813-82.222 82.061 0 42.579 32.654 77.682 74.29 81.678v-52.417l-19.04-18.468v-25.37c3.277-.948 5.683-3.964 5.683-7.536 0-10.374-15.73-10.374-15.73 0 0 3.572 2.406 6.588 5.685 7.536v12.833l-8.065-6.088v-21.922c8.622-2.59 6.749-15.366-2.261-15.366-9.085 0-10.892 12.968-2.102 15.407v24.047l12.428 9.381v8.92l3.999 3.878h-11.73l-12.481-12.092c3.443-5.202-.317-12.162-6.563-12.162-12.605 0-8.58 20.33 3.228 15l14.049 13.608h17.984l10.552 10.234v45.634c-37.006-5.877-65.563-37.973-65.563-76.735 0-42.847 34.926-77.706 77.857-77.706 42.93 0 77.857 34.859 77.857 77.706 0 39.774-30.094 72.67-68.781 77.176v-4.87c35.917-4.465 63.934-35.127 63.934-72.306 0-40.179-32.753-72.868-73.01-72.868-40.257 0-73.01 32.689-73.01 72.868 0 34.462 24.095 63.413 56.354 70.952v-3.979c-30.102-7.46-52.48-34.656-52.48-66.973 0-38.047 31.015-69.001 69.136-69.001 38.121 0 69.137 30.954 69.137 69.001 0 35.013-26.252 63.963-60.061 68.406v-35.523l1.164-.878h12.996l20.42-10.847c4.921 4.988 13.468 1.502 13.468-5.502 0-11.533-18.002-9.578-15.546 1.675l-19.43 10.32h-6.13l35.42-26.689v-25.16c8.688-2.51 6.888-15.387-2.181-15.387-9.073 0-10.856 12.88-2.18 15.386v22.969l-26.867 20.244v-15.016l13.803-9.903v-10.849c8.685-2.508 6.884-15.385-2.182-15.385-9.076 0-10.859 12.88-2.181 15.385v8.618l-13.803 9.902v20.536l-11.134 8.389v51.233c43.17-2.453 77.507-38.27 77.507-81.923 0-45.248-36.883-82.06-82.22-82.06M90.076 38.79a3.503 3.503 0 0 1-3.502-3.495 3.503 3.503 0 0 1 7.004 0 3.503 3.503 0 0 1-3.502 3.496m-12.71 14.301h-2.606c-3.4-1.366-2.785-6.706 1.303-6.704 4.095-.002 4.695 5.34 1.301 6.704m38.189-17.272c5.752 0 3.713 9.186-1.528 6.627l-1.465-1.339c-1.435-2.382.334-5.288 2.993-5.288m-24.691 140.968v-75.205l10.993-10.473v-32.968l10.645-11.593c11.803 4.985 15.507-15.083 3.055-15.083-6.34 0-10.079 7.148-6.448 12.333l-11.613 12.649v32.8l-10.994 10.472v3.066l-7.663-7.268v-16.917l.133.162 14.073-11.512v-24.691c7.97-3.253 5.612-15.114-2.966-15.114-4.336 0-7.864 3.52-7.864 7.85 0 3.85 2.796 7.057 6.47 7.718v22.176l-9.846 8.052v-16.052c2.971-1.124 5.093-3.984 5.093-7.338 0-10.373-15.731-10.373-15.731 0 0 3.786 2.697 6.953 6.276 7.689v39.845l12.025 11.406v67.913c-45.836-2.026-82.551-39.873-82.551-86.16 0-47.56 38.767-86.251 86.42-86.251 47.65 0 86.42 38.692 86.42 86.25 0 47.374-38.486 85.983-85.926 86.244m-.496-176.435c-49.83 0-90.367 40.459-90.367 90.191 0 54.85 49.009 97.386 103.805 89.193 43.48-6.497 76.93-44.018 76.93-89.193 0-49.732-40.538-90.191-90.368-90.191"/></g></svg>