<svg xmlns="http://www.w3.org/2000/svg" width="370" viewBox="0 0 503.607 503.607" enable-background="new 0 0 503.607 503.607" fill="#fed000"><path d="M453.246 0h-402.885c-27.699 0-50.361 22.662-50.361 50.361v402.885c0 27.698 22.662 50.361 50.361 50.361h402.885c27.698 0 50.361-22.662 50.361-50.361v-402.885c0-27.699-22.663-50.361-50.361-50.361zm33.574 453.246c0 18.466-15.108 33.574-33.574 33.574h-402.885c-18.466 0-33.574-15.108-33.574-33.574v-402.885c0-18.466 15.108-33.574 33.574-33.574h402.885c18.466 0 33.574 15.108 33.574 33.574v402.885zM440.656 33.574h-377.705c-15.948 0-29.377 13.43-29.377 29.377v377.705c0 15.948 13.43 29.377 29.377 29.377h377.705c15.948 0 29.377-13.43 29.377-29.377v-377.705c0-15.948-13.43-29.377-29.377-29.377zm12.59 407.082c0 6.715-5.875 12.59-12.59 12.59h-377.705c-6.715 0-12.59-5.875-12.59-12.59v-377.705c0-6.715 5.875-12.59 12.59-12.59h377.705c6.715 0 12.59 5.875 12.59 12.59v377.705zM193.049 218.229c-18.466 0-33.574 15.108-33.574 33.574s15.108 33.574 33.574 33.574 33.574-15.108 33.574-33.574-15.108-33.574-33.574-33.574zm0 50.361c-9.233 0-16.787-7.554-16.787-16.787 0-9.233 7.554-16.787 16.787-16.787s16.787 7.554 16.787 16.787c0 9.233-7.554 16.787-16.787 16.787zM276.984 251.803c0 18.466 15.108 33.574 33.574 33.574s33.574-15.108 33.574-33.574-15.108-33.574-33.574-33.574-33.574 15.109-33.574 33.574zm50.36 0c0 9.233-7.554 16.787-16.787 16.787s-16.787-7.554-16.787-16.787c0-9.233 7.554-16.787 16.787-16.787s16.787 7.554 16.787 16.787zM251.803 243.41c-5.036 0-8.393 3.357-8.393 8.393s3.357 8.393 8.393 8.393 8.393-3.357 8.393-8.393-3.357-8.393-8.393-8.393zM269.43 127.58c-2.518-.839-5.036 0-6.715 1.679-1.679 1.679-2.518 4.197-2.518 6.715v23.502h-16.787v-23.502c0-2.518-.839-5.036-2.518-6.715-1.679-1.679-4.197-1.679-6.715-1.679-62.112 8.393-108.275 62.111-108.275 124.223s46.164 115.829 108.275 124.223c2.518.839 5.036 0 6.715-1.679 1.679-1.679 2.518-4.197 2.518-6.715v-23.502h16.787v23.502c0 2.518.839 5.036 2.518 6.715 1.679.839 4.197 1.679 5.875 1.679h.839c62.111-8.393 108.275-62.111 108.275-124.223.001-62.111-46.163-115.829-108.274-124.223zm7.554 229.981v-21.823c0-5.036-3.357-8.393-8.393-8.393h-33.574c-4.197 0-8.393 4.197-8.393 8.393v21.823c-48.682-10.911-83.934-55.397-83.934-105.757s35.252-94.846 83.934-105.757v21.823c0 5.036 3.357 8.393 8.393 8.393h33.574c5.036 0 8.393-3.357 8.393-8.393v-21.823c48.682 10.911 83.934 55.397 83.934 105.757s-35.252 94.845-83.934 105.757z"/></svg>