<svg xmlns="http://www.w3.org/2000/svg" width="370" viewBox="0 0 512 512" enable-background="new 0 0 512 512" fill="#fed000"><path d="M256 374.5c-42.458 0-77 30.654-77 68.333 0 5.523 4.477 10 10 10h24.942c4.923 16.768 21.91 29.167 42.058 29.167s37.135-12.399 42.058-29.167h24.942c5.523 0 10-4.477 10-10 0-37.679-34.542-68.333-77-68.333zm0 87.5c-8.468 0-15.905-3.672-20.041-9.167h40.083c-4.137 5.495-11.574 9.167-20.042 9.167zm33.5-29.167h-89.273c5.447-21.869 28.385-38.333 55.773-38.333s50.326 16.464 55.773 38.333h-22.273zM256.001 335.17c-5.52 0-10 4.48-10 10 0 5.51 4.48 10 10 10 5.51 0 10-4.49 10-10 0-5.52-4.49-10-10-10zM192.891 162.65c-4.39-3.35-10.67-2.51-14.02 1.88-3.35 4.39-2.51 10.67 1.88 14.02 1.81 1.38 3.94 2.05 6.06 2.05 3.01 0 5.99-1.35 7.95-3.93 3.36-4.39 2.52-10.66-1.87-14.02zM226.361 140.93c-2.46-4.95-8.46-6.97-13.41-4.52-4.94 2.46-6.97 8.46-4.51 13.4 1.74 3.53 5.28 5.56 8.96 5.56 1.5 0 3.01-.33 4.44-1.04 4.95-2.45 6.97-8.45 4.52-13.4zM333.131 164.53c-3.35-4.39-9.63-5.23-14.02-1.88-4.39 3.36-5.23 9.63-1.88 14.02 1.97 2.58 4.95 3.93 7.96 3.93 2.11 0 4.25-.67 6.06-2.05 4.39-3.35 5.23-9.63 1.88-14.02zM299.042 136.41c-4.94-2.45-10.94-.43-13.4 4.52-2.45 4.95-.43 10.95 4.52 13.4 1.43.71 2.94 1.04 4.43 1.04 3.68 0 7.22-2.04 8.97-5.56 2.449-4.94.429-10.94-4.52-13.4zM440 405.095v-111.262c0-53.486-43.514-97-97-97-15.812 0-31.225 3.877-45.006 11.106-9.441-5.471-20.309-9.159-31.994-10.511v-26.762c0-37.133 18.791-91.341 50.449-120.779 9.531-7.214 16.407-17.759 18.879-29.887h27.672c5.523 0 10-4.477 10-10s-4.477-10-10-10h-214c-5.523 0-10 4.477-10 10s4.477 10 10 10h27.673c2.472 12.128 9.348 22.672 18.877 29.886 31.659 29.439 50.45 83.648 50.45 120.781v26.762c-11.677 1.351-22.538 5.035-31.975 10.5-13.785-7.231-29.21-11.095-45.025-11.095-53.486 0-97 43.514-97 97v111.262c-37.748 4.367-67 33.068-67 67.738 0 5.523 4.477 10 10 10h24.942c4.923 16.767 21.91 29.166 42.058 29.166s37.135-12.399 42.058-29.167h24.942c5.523 0 10-4.477 10-10 0-34.67-29.252-63.372-67-67.738v-111.262c0-42.458 34.542-77 77-77 9.472 0 18.762 1.758 27.454 5.08-10.898 11.787-17.454 26.849-17.454 43.254 0 5.523 4.477 10 10 10h57.001v30.003c0 5.51 4.48 10 10 10 5.51 0 10-4.49 10-10v-30.003h56.999c5.523 0 10-4.477 10-10 0-16.408-6.559-31.473-17.461-43.26 8.694-3.321 17.988-5.073 27.461-5.073 42.458 0 77 34.542 77 77v111.262c-37.748 4.367-67 33.068-67 67.738 0 5.523 4.477 10 10 10h24.942c4.923 16.767 21.91 29.166 42.058 29.166s37.135-12.399 42.058-29.167h24.942c5.523 0 10-4.477 10-10 0-34.67-29.252-63.371-67-67.738zm-358 86.905c-8.468 0-15.905-3.672-20.041-9.167h40.083c-4.137 5.495-11.574 9.167-20.042 9.167zm55.773-29.167h-111.54599999999999c5.447-21.869 28.385-38.333 55.773-38.333s50.326 16.464 55.773 38.333zm59.607-442.833h117.24c-4.127 11.641-15.249 20-28.287 20h-60.667c-13.037 0-24.158-8.359-28.286-20zm32.862 40h51.525c-11.126 16.232-19.773 34.75-25.767 53.205-5.993-18.453-14.634-36.974-25.758-53.205zm-30.015 195.167c5.447-21.869 28.385-38.333 55.773-38.333s50.326 16.464 55.773 38.333h-111.546zm229.773 236.833c-8.468 0-15.905-3.672-20.042-9.167h40.083c-4.136 5.495-11.573 9.167-20.041 9.167zm33.5-29.167h-89.273c5.447-21.869 28.385-38.333 55.773-38.333s50.326 16.464 55.773 38.333h-22.273z"/></svg>