<svg xmlns="http://www.w3.org/2000/svg" width="85" height="86" viewBox="0 0 85 86">
    <g fill="none">
        <path fill="#336E7B"
              d="M29.782 67.284l-12.65 6.898c-.742.408-1.414.908-2.03 1.446a42.2 42.2 0 0 0 27.296 9.968 42.221 42.221 0 0 0 27.142-9.828 11.23 11.23 0 0 0-2.228-1.492l-13.546-6.772a5.173 5.173 0 0 1-2.86-4.626v-5.312c.384-.43.82-.992 1.282-1.648 1.852-2.61 3.242-5.478 4.21-8.486 1.742-.538 3.024-2.14 3.024-4.046v-5.672c0-1.25-.554-2.368-1.422-3.148v-8.204s1.688-12.758-15.602-12.758c-17.28 0-15.594 12.758-15.594 12.758v8.204a4.23 4.23 0 0 0-1.422 3.148v5.672c0 1.492.79 2.804 1.962 3.57 1.422 6.172 5.132 10.61 5.132 10.61v5.188a5.178 5.178 0 0 1-2.694 4.53z"/>
        </g>
</svg>